<svg width="65" height="68" viewBox="0 0 65 68" fill="none" xmlns="http://www.w3.org/2000/svg">
        <path d="M2.92773 13.8423V7.35371C3.10515 7.09416 3.47773 6.54047 3.5487 6.40205C3.61967 6.26363 4.46537 6.056 4.87935 5.96948L6.38741 7.35371V12.112C6.38741 15.0881 10.0541 18.4852 11.8874 19.8117C12.3014 21.3978 12.1358 23.8779 8.1616 21.1094C4.18741 18.341 3.01644 15.1111 2.92773 13.8423Z"
                fill="white" />
        <path d="M61.9854 14.1018V7.61329C61.8079 7.35375 61.4354 6.80006 61.3644 6.66164C61.2934 6.52321 60.4477 6.31558 60.0337 6.22906L58.5257 7.61329V12.3716C58.5257 15.3476 54.859 18.7448 53.0257 20.0713C52.6117 21.6574 52.7773 24.1375 56.7515 21.369C60.7257 18.6006 61.8966 15.3707 61.9854 14.1018Z"
                fill="white" />
        <ellipse cx="60.0564" cy="4.06616" rx="4.52419" ry="4.06616" fill="white" />
        <ellipse cx="4.52419" cy="4.06616" rx="4.52419" ry="4.06616" fill="white" />
        <path d="M28.4757 13.2367C30.7467 12.2678 31.9058 12.0255 32.2015 12.0255C33.408 11.8871 34.9515 12.4292 35.5725 12.7176C43.9112 16.0052 60.9967 22.7879 62.6289 23.6184C64.2612 24.4489 64.6101 25.8101 64.5806 26.3868V48.5344C64.7225 50.8876 60.9139 52.4564 58.9918 52.9466V55.8881C58.9918 57.6184 57.3951 58.8584 56.5967 59.2622C50.7418 61.6846 38.7128 66.6332 37.4354 67.0484C35.8386 67.5675 34.5967 68.0001 32.5564 68.0001C30.9241 68.0001 29.9838 67.8271 29.7177 67.7405C23.094 65.1451 9.43863 59.764 7.80638 59.0026C6.17412 58.2413 5.82519 57.0128 5.85476 56.4937V52.9466C5.08595 52.6583 3.21122 51.9085 1.86283 51.2164C0.514443 50.5243 0.35477 49.3707 0.443482 48.8805C0.413912 42.1324 0.372514 28.2036 0.443482 26.4734C0.51445 24.7431 1.65585 23.9068 2.21767 23.7049C10.0241 20.6192 26.2048 14.2057 28.4757 13.2367Z"
                fill="white" />
        <ellipse cx="45.2424" cy="37.4606" rx="8.69355" ry="8.56489" fill="#232323" />
        <ellipse cx="19.6935" cy="37.4606" rx="8.69355" ry="8.56489" fill="#232323" />
</svg>